<svg id="Grupo_2122" data-name="Grupo 2122" xmlns="http://www.w3.org/2000/svg" xmlns:xlink="http://www.w3.org/1999/xlink" width="463.285" height="307.177" viewBox="0 0 463.285 307.177">
  <defs>
    <clipPath id="clip-path">
      <rect id="Rectángulo_458" data-name="Rectángulo 458" width="463.285" height="307.177" fill="none"/>
    </clipPath>
  </defs>
  <path id="Trazado_2435" data-name="Trazado 2435" d="M722.268,264.56l-43.705,6.954,10.546,10.165L568.315,396.42l-42.924-36.358-137.5,122.715h35.468l102.422-91.2,44.171,37.41L706.242,298.194l10.683,10.3Z" transform="translate(-259.934 -177.287)" fill="#fff"/>
  <path id="Trazado_2436" data-name="Trazado 2436" d="M685.909,279.68l-9.975-9.615,40.991-6.522-5.011,41.2-10.063-9.7L565.525,425.873l-44.15-37.393L418.653,479.947H385.661l135.352-120.8,42.941,36.373Zm-13.5-10.724,11.117,10.715L563.891,393.308l-42.906-36.343L381.336,481.6h37.945L521.4,390.665l44.192,37.428L701.848,297.334l11.3,10.9,5.675-46.659Z" transform="translate(-255.541 -175.283)"/>
  <path id="Trazado_2437" data-name="Trazado 2437" d="M931.9,248.682l9.284,8.949L890.158,310.5,905.3,324.97l50.968-52.8,9.405,9.065,4.7-38.675Z" transform="translate(-596.513 -162.545)" fill="#fff"/>
  <path id="Trazado_2438" data-name="Trazado 2438" d="M902.951,324.13l-16.336-15.615,51.032-52.867-9.881-9.524,41.19-6.554-5.035,41.4-10-9.642Zm-14-15.662L902.9,321.8,953.875,269l8.807,8.489,4.372-35.946-35.762,5.69,8.687,8.373Z" transform="translate(-594.139 -160.541)"/>
  <rect id="Rectángulo_454" data-name="Rectángulo 454" width="8.247" height="172.032" transform="translate(244.894 121.745)" fill="#fff"/>
  <path id="Trazado_2439" data-name="Trazado 2439" d="M749.771,540.242h-9.9V366.56h9.9Zm-8.247-1.649h6.6V368.209h-6.6Z" transform="translate(-495.805 -245.639)"/>
  <g id="Grupo_2121" data-name="Grupo 2121">
    <g id="Enmascarar_grupo_2120" data-name="Enmascarar grupo 2120" clip-path="url(#clip-path)">
      <path id="Trazado_2440" data-name="Trazado 2440" d="M622.154,762.54s1.649-79.171-75.542-81.48c0,0-8.577,86.428,75.542,81.48" transform="translate(-366.13 -456.392)" fill="#add9f5"/>
      <path id="Trazado_2441" data-name="Trazado 2441" d="M613.693,761.848c-21.35,0-38.177-6.263-50.087-18.661-12.1-12.6-16.755-29.317-18.525-41.122a103.255,103.255,0,0,1-.953-22.809l.076-.766.77.023c17.775.532,32.857,5.2,44.828,13.862,9.583,6.938,17.192,16.434,22.615,28.224a103.123,103.123,0,0,1,8.9,40.236l-.016.761-.76.045q-3.5.205-6.846.206m-67.985-81.659a104.628,104.628,0,0,0,1.011,21.679c1.738,11.556,6.286,27.908,18.083,40.184,12.668,13.182,31.122,19.233,54.862,17.987a102.008,102.008,0,0,0-8.771-38.8c-12.021-26.091-33.952-39.9-65.185-41.049" transform="translate(-364.467 -454.671)"/>
      <path id="Trazado_2442" data-name="Trazado 2442" d="M656.887,588.4s2.969-30.349-46.513-24.741c0,0,12.541,11.869,20.607,19.133,11.721,10.556,25.906,5.608,25.906,5.608" transform="translate(-409.024 -377.254)" fill="#add9f5"/>
      <path id="Trazado_2443" data-name="Trazado 2443" d="M645.072,588.662a26.979,26.979,0,0,1-18.41-6.947c-7.981-7.188-20.5-19.028-20.622-19.147l-1.288-1.219,1.762-.2c19.082-2.163,32.754.678,40.638,8.443a22.621,22.621,0,0,1,6.788,17.2l-.051.525-.5.173a28.21,28.21,0,0,1-8.32,1.173m-36.6-26.061c3.422,3.227,12.841,12.082,19.289,17.889,9.983,8.991,21.932,6.335,24.557,5.6a21.463,21.463,0,0,0-6.351-15.345c-7.275-7.143-19.884-9.881-37.5-8.145" transform="translate(-405.257 -375.568)"/>
      <path id="Trazado_2444" data-name="Trazado 2444" d="M754.874,492.525s2.639-27.71,38.6-23.751c0,0-3.959,31.009-38.6,23.751" transform="translate(-505.857 -313.876)" fill="#add9f5"/>
      <path id="Trazado_2445" data-name="Trazado 2445" d="M762.985,492.773a49.313,49.313,0,0,1-10.089-1.12l-.722-.151.07-.734a28.375,28.375,0,0,1,10.041-17.88c7.079-5.761,16.993-7.986,29.466-6.613l.834.092-.106.832c-.068.531-1.779,13.087-12.139,20.462-4.782,3.4-10.595,5.112-17.355,5.112m-8.992-2.58c10.382,2.033,18.922.73,25.391-3.875,8.293-5.9,10.751-15.607,11.315-18.493-11.606-1.129-20.812,1-27.372,6.343a27.242,27.242,0,0,0-9.334,16.026" transform="translate(-504.047 -312.197)"/>
      <path id="Trazado_2446" data-name="Trazado 2446" d="M699.163,162.293a55.585,55.585,0,1,1-55.585-55.585,55.585,55.585,0,0,1,55.585,55.585" transform="translate(-394.026 -71.507)" fill="#f7c257"/>
      <path id="Trazado_2447" data-name="Trazado 2447" d="M641.9,217.027a56.409,56.409,0,1,1,56.409-56.409A56.473,56.473,0,0,1,641.9,217.027m0-111.169a54.76,54.76,0,1,0,54.76,54.76,54.822,54.822,0,0,0-54.76-54.76" transform="translate(-392.351 -69.832)"/>
      <path id="Trazado_2448" data-name="Trazado 2448" d="M714.133,191.778a41.07,41.07,0,1,1-41.07-41.07,41.07,41.07,0,0,1,41.07,41.07" transform="translate(-423.511 -100.993)" fill="#fff"/>
      <path id="Trazado_2449" data-name="Trazado 2449" d="M671.388,232A41.895,41.895,0,1,1,713.282,190.1,41.942,41.942,0,0,1,671.388,232m0-82.14A40.245,40.245,0,1,0,711.633,190.1a40.291,40.291,0,0,0-40.245-40.245" transform="translate(-421.836 -99.317)"/>
      <path id="Trazado_2450" data-name="Trazado 2450" d="M737.69,239.241q-3.217,3.056-9.326,3.7V249h-4.434v-6a30.311,30.311,0,0,1-7.569-1.46,16.486,16.486,0,0,1-5.677-3.028l2.433-5.46a17.906,17.906,0,0,0,4.866,2.73,21.628,21.628,0,0,0,5.947,1.379V226.347a39.719,39.719,0,0,1-6.407-2.027,11.091,11.091,0,0,1-4.3-3.244,8.7,8.7,0,0,1-1.73-5.65,9.989,9.989,0,0,1,3.19-7.461q3.19-3.082,9.245-3.677V198.18h4.434v6a25.345,25.345,0,0,1,5.92,1.027,19.48,19.48,0,0,1,5.055,2.271l-2.216,5.46a22.5,22.5,0,0,0-8.758-2.919v10.921a41.707,41.707,0,0,1,6.46,2,11.1,11.1,0,0,1,4.325,3.217,8.617,8.617,0,0,1,1.757,5.65,9.866,9.866,0,0,1-3.217,7.434m-17.814-21.274a12.181,12.181,0,0,0,4.055,1.838v-9.623a7.488,7.488,0,0,0-4.109,1.73,4.247,4.247,0,0,0-1.352,3.19,3.435,3.435,0,0,0,1.406,2.866m12.732,17.408a3.982,3.982,0,0,0,1.379-3.081,3.517,3.517,0,0,0-1.46-2.947,12.53,12.53,0,0,0-4.163-1.865v9.569a8.052,8.052,0,0,0,4.244-1.676" transform="translate(-476.245 -132.804)"/>
      <path id="Trazado_2451" data-name="Trazado 2451" d="M620.314,762.311c-19.9-12.839-39.516-34.379-52.466-50.189-14.017-17.112-23.467-31.388-23.561-31.531l1.377-.909c.373.566,37.78,56.88,75.544,81.242Z" transform="translate(-364.738 -455.469)"/>
      <path id="Trazado_2452" data-name="Trazado 2452" d="M753.829,491.215l-1.058-1.265c19.994-16.716,38.637-24.143,38.823-24.216l.6,1.535c-.184.072-18.592,7.412-38.369,23.946" transform="translate(-504.447 -312.097)"/>
      <path id="Trazado_2453" data-name="Trazado 2453" d="M655.9,588.563c-.027-.046-2.77-4.679-9.768-9.967-6.465-4.885-17.988-11.345-36.167-14.375l.271-1.627c18.57,3.1,30.36,9.731,36.98,14.754,7.224,5.48,10,10.19,10.112,10.388Z" transform="translate(-408.749 -377.006)"/>
      <path id="Trazado_2454" data-name="Trazado 2454" d="M727.368,762.54s-1.649-79.171,75.542-81.48c0,0,8.577,86.428-75.542,81.48" transform="translate(-487.423 -456.392)" fill="#add9f5"/>
      <path id="Trazado_2455" data-name="Trazado 2455" d="M732.493,761.849q-3.351,0-6.846-.206l-.76-.045-.016-.761a103.125,103.125,0,0,1,8.9-40.236c5.423-11.79,13.032-21.286,22.615-28.224,11.97-8.666,27.053-13.33,44.828-13.862l.769-.023.076.766a103.25,103.25,0,0,1-.953,22.809c-1.77,11.8-6.421,28.521-18.525,41.121-11.909,12.4-28.739,18.661-50.087,18.661m-5.972-1.809c23.742,1.244,42.195-4.8,54.863-17.987,11.8-12.276,16.345-28.628,18.083-40.184a104.631,104.631,0,0,0,1.011-21.679c-31.255,1.152-53.193,14.977-65.209,41.1a101.909,101.909,0,0,0-8.748,38.749" transform="translate(-485.75 -454.671)"/>
      <path id="Trazado_2456" data-name="Trazado 2456" d="M726.415,763.015l-.891-1.388a230.457,230.457,0,0,0,57.736-53.372c12.107-15.837,17.781-27.651,17.838-27.769l1.49.709c-.057.119-5.786,12.056-17.985,28.021a232.128,232.128,0,0,1-58.186,53.8" transform="translate(-486.188 -456.008)"/>
      <rect id="Rectángulo_455" data-name="Rectángulo 455" width="4.888" height="101.968" transform="translate(385.904 196.931)" fill="#fff"/>
      <path id="Trazado_2457" data-name="Trazado 2457" d="M1173.872,698.1h-6.538V594.479h6.538Zm-4.888-1.649h3.239V596.128h-3.239Z" transform="translate(-782.254 -398.372)"/>
      <path id="Trazado_2458" data-name="Trazado 2458" d="M1098.577,830.205s.978-46.927-44.776-48.3c0,0-5.084,51.228,44.776,48.3" transform="translate(-706.076 -523.974)" fill="#add9f5"/>
      <path id="Trazado_2459" data-name="Trazado 2459" d="M1092.864,829.43c-12.749,0-22.8-3.747-29.928-11.164-7.236-7.533-10.014-17.512-11.07-24.557a60.334,60.334,0,0,1-.567-13.6l.076-.766.769.023c10.6.317,19.607,3.1,26.757,8.28a42.152,42.152,0,0,1,13.513,16.861,60.275,60.275,0,0,1,5.306,24l-.016.761-.76.045q-2.083.122-4.079.122m-39.979-48.388c-.234,4.114-.661,23.7,11.247,36.089,7.38,7.678,18.121,11.234,31.932,10.572a60.226,60.226,0,0,0-5.172-22.559c-7.028-15.236-19.813-23.341-38.007-24.1" transform="translate(-704.394 -522.252)"/>
      <path id="Trazado_2460" data-name="Trazado 2460" d="M1119.164,726.986s1.76-17.989-27.569-14.664c0,0,7.433,7.035,12.214,11.34,6.948,6.257,15.355,3.324,15.355,3.324" transform="translate(-731.5 -477.066)" fill="#add9f5"/>
      <path id="Trazado_2461" data-name="Trazado 2461" d="M1110.585,726.833a16.255,16.255,0,0,1-11.1-4.238c-4.734-4.263-12.155-11.284-12.229-11.354l-1.287-1.219,1.761-.2c11.416-1.294,19.612.422,24.361,5.1a13.766,13.766,0,0,1,4.122,10.465l-.052.525-.5.174a16.636,16.636,0,0,1-5.083.748m-20.878-15.552c2.352,2.215,7.367,6.919,10.886,10.088a15.361,15.361,0,0,0,14,3.312,12.4,12.4,0,0,0-3.675-8.607c-4.138-4.054-11.268-5.664-21.208-4.793" transform="translate(-727.733 -475.386)"/>
      <path id="Trazado_2462" data-name="Trazado 2462" d="M1177.243,670.16s1.564-16.424,22.877-14.078c0,0-2.347,18.38-22.877,14.078" transform="translate(-788.895 -439.5)" fill="#add9f5"/>
      <path id="Trazado_2463" data-name="Trazado 2463" d="M1181.315,669.961a29.6,29.6,0,0,1-6.051-.671l-.722-.151.07-.734a17.184,17.184,0,0,1,6.074-10.827c4.268-3.474,10.229-4.817,17.714-3.992l.834.092-.106.832c-.041.321-1.075,7.9-7.334,12.359a17.636,17.636,0,0,1-10.48,3.093m-4.941-2.133c5.9,1.094,10.763.324,14.451-2.294,4.515-3.206,6.062-8.384,6.509-10.4-6.611-.579-11.859.671-15.606,3.72a15.776,15.776,0,0,0-5.354,8.971" transform="translate(-787.085 -437.823)"/>
      <path id="Trazado_2464" data-name="Trazado 2464" d="M1144.221,474.423a32.947,32.947,0,1,1-32.946-32.946,32.946,32.946,0,0,1,32.946,32.946" transform="translate(-722.61 -295.843)" fill="#f7c257"/>
      <path id="Trazado_2465" data-name="Trazado 2465" d="M1109.6,506.519a33.771,33.771,0,1,1,33.771-33.771,33.809,33.809,0,0,1-33.771,33.771m0-65.893a32.122,32.122,0,1,0,32.122,32.122,32.158,32.158,0,0,0-32.122-32.122" transform="translate(-720.935 -294.167)"/>
      <path id="Trazado_2466" data-name="Trazado 2466" d="M1153.095,491.9a24.343,24.343,0,1,1-24.343-24.343,24.343,24.343,0,0,1,24.343,24.343" transform="translate(-740.086 -313.319)" fill="#fff"/>
      <path id="Trazado_2467" data-name="Trazado 2467" d="M1127.077,515.392a25.168,25.168,0,1,1,25.168-25.168,25.2,25.2,0,0,1-25.168,25.168m0-48.686a23.518,23.518,0,1,0,23.518,23.518,23.545,23.545,0,0,0-23.518-23.518" transform="translate(-738.412 -311.644)"/>
      <path id="Trazado_2468" data-name="Trazado 2468" d="M1167.058,520.033a9.208,9.208,0,0,1-5.527,2.195v3.589H1158.9V522.26a17.952,17.952,0,0,1-4.486-.865,9.779,9.779,0,0,1-3.365-1.795l1.442-3.236a10.624,10.624,0,0,0,2.884,1.618,12.832,12.832,0,0,0,3.525.817V512.39a23.554,23.554,0,0,1-3.8-1.2,6.576,6.576,0,0,1-2.547-1.923,5.154,5.154,0,0,1-1.026-3.349,5.922,5.922,0,0,1,1.891-4.422,8.9,8.9,0,0,1,5.48-2.179v-3.621h2.628v3.557a15.033,15.033,0,0,1,3.509.609,11.559,11.559,0,0,1,3,1.346l-1.314,3.237a13.339,13.339,0,0,0-5.191-1.731v6.473a24.734,24.734,0,0,1,3.829,1.186,6.585,6.585,0,0,1,2.563,1.907,5.106,5.106,0,0,1,1.042,3.349,5.849,5.849,0,0,1-1.907,4.407m-10.559-12.61a7.214,7.214,0,0,0,2.4,1.09v-5.7a4.439,4.439,0,0,0-2.436,1.025,2.517,2.517,0,0,0-.8,1.891,2.036,2.036,0,0,0,.833,1.7m7.547,10.319a2.361,2.361,0,0,0,.817-1.827,2.086,2.086,0,0,0-.865-1.747,7.435,7.435,0,0,0-2.467-1.105v5.672a4.771,4.771,0,0,0,2.515-.993" transform="translate(-771.343 -332.175)"/>
      <path id="Trazado_2469" data-name="Trazado 2469" d="M1096.736,829.975c-22.617-14.59-44.938-48.2-45.161-48.534l1.377-.908c.221.335,22.355,33.656,44.679,48.056Z" transform="translate(-704.681 -523.051)"/>
      <path id="Trazado_2470" data-name="Trazado 2470" d="M1176.4,669.006l-1.058-1.265a94.618,94.618,0,0,1,23.1-14.408l.6,1.535a92.921,92.921,0,0,0-22.65,14.139" transform="translate(-787.621 -437.811)"/>
      <path id="Trazado_2471" data-name="Trazado 2471" d="M1118.175,726.581c-.063-.108-6.566-10.862-26.992-14.266l.271-1.627c21.256,3.543,27.876,14.6,28.147,15.065Z" transform="translate(-731.224 -476.247)"/>
      <path id="Trazado_2472" data-name="Trazado 2472" d="M1160.94,830.205s-.978-46.927,44.776-48.3c0,0,5.084,51.228-44.776,48.3" transform="translate(-777.968 -523.974)" fill="#add9f5"/>
      <path id="Trazado_2473" data-name="Trazado 2473" d="M1163.293,829.43q-2,0-4.079-.122l-.76-.045-.016-.761a60.275,60.275,0,0,1,5.306-24,42.154,42.154,0,0,1,13.512-16.861c7.151-5.177,16.153-7.963,26.758-8.28l.769-.023.076.766a60.321,60.321,0,0,1-.567,13.6c-1.056,7.045-3.834,17.024-11.07,24.557-7.125,7.417-17.181,11.164-29.928,11.164m-3.2-1.727c13.814.663,24.553-2.894,31.932-10.572,11.908-12.389,11.481-31.975,11.247-36.089-18.214.762-31.007,8.885-38.03,24.153a60.152,60.152,0,0,0-5.149,22.508" transform="translate(-776.291 -522.252)"/>
      <path id="Trazado_2474" data-name="Trazado 2474" d="M1160.188,830.476l-.891-1.388c31.117-19.977,44.541-47.678,44.672-47.956l1.489.708a106.145,106.145,0,0,1-10.7,16.669,137.93,137.93,0,0,1-34.574,31.967" transform="translate(-776.868 -523.452)"/>
      <path id="Trazado_2475" data-name="Trazado 2475" d="M1066.748,26.21a23.71,23.71,0,1,1-23.71-23.71,23.71,23.71,0,0,1,23.71,23.71" transform="translate(-683.072 -1.675)" fill="#f7c257"/>
      <path id="Trazado_2476" data-name="Trazado 2476" d="M1041.363,49.069A24.535,24.535,0,1,1,1065.9,24.534a24.563,24.563,0,0,1-24.534,24.535m0-47.42a22.885,22.885,0,1,0,22.885,22.885,22.911,22.911,0,0,0-22.885-22.885" transform="translate(-681.397)"/>
      <path id="Trazado_2477" data-name="Trazado 2477" d="M1073.134,38.787a17.518,17.518,0,1,1-17.518-17.519,17.518,17.518,0,0,1,17.518,17.519" transform="translate(-695.65 -14.252)" fill="#fff"/>
      <path id="Trazado_2478" data-name="Trazado 2478" d="M1053.94,55.455a18.343,18.343,0,1,1,18.343-18.343,18.364,18.364,0,0,1-18.343,18.343m0-35.037a16.694,16.694,0,1,0,16.694,16.694,16.713,16.713,0,0,0-16.694-16.694" transform="translate(-693.975 -12.577)"/>
      <path id="Trazado_2479" data-name="Trazado 2479" d="M1083.182,59.032a6.628,6.628,0,0,1-3.978,1.579v2.583h-1.891v-2.56a12.908,12.908,0,0,1-3.228-.622,7.036,7.036,0,0,1-2.422-1.291l1.038-2.329a7.638,7.638,0,0,0,2.076,1.164,9.216,9.216,0,0,0,2.537.588V53.532a16.939,16.939,0,0,1-2.733-.865,4.733,4.733,0,0,1-1.833-1.384,3.709,3.709,0,0,1-.738-2.41,4.26,4.26,0,0,1,1.361-3.182,6.4,6.4,0,0,1,3.943-1.568V41.517h1.891v2.56a10.832,10.832,0,0,1,2.525.438,8.3,8.3,0,0,1,2.156.969l-.946,2.329a9.6,9.6,0,0,0-3.736-1.245v4.659a17.8,17.8,0,0,1,2.756.853,4.735,4.735,0,0,1,1.845,1.372,3.674,3.674,0,0,1,.75,2.41,4.209,4.209,0,0,1-1.372,3.171m-7.6-9.075a5.209,5.209,0,0,0,1.73.784V46.637a3.194,3.194,0,0,0-1.753.738,1.812,1.812,0,0,0-.577,1.361,1.466,1.466,0,0,0,.6,1.222m5.431,7.426a1.7,1.7,0,0,0,.588-1.314,1.5,1.5,0,0,0-.623-1.257,5.332,5.332,0,0,0-1.776-.8V58.1a3.436,3.436,0,0,0,1.81-.715" transform="translate(-718.143 -27.821)"/>
      <path id="Trazado_2480" data-name="Trazado 2480" d="M323.5,170.833v46.8l21.177-23.4Z" transform="translate(-216.784 -114.479)" fill="#f7c257"/>
      <path id="Trazado_2481" data-name="Trazado 2481" d="M371.86,191.58a1.694,1.694,0,1,0,1.694-1.694,1.694,1.694,0,0,0-1.694,1.694" transform="translate(-249.191 -127.246)"/>
      <path id="Trazado_2482" data-name="Trazado 2482" d="M371.432,215.118a1.694,1.694,0,1,0,1.694-1.694,1.694,1.694,0,0,0-1.694,1.694" transform="translate(-248.904 -143.02)"/>
      <path id="Trazado_2483" data-name="Trazado 2483" d="M371.432,239.085a1.694,1.694,0,1,0,1.694-1.694,1.694,1.694,0,0,0-1.694,1.694" transform="translate(-248.904 -159.081)"/>
      <path id="Trazado_2484" data-name="Trazado 2484" d="M371.432,263.051a1.694,1.694,0,1,0,1.694-1.694,1.694,1.694,0,0,0-1.694,1.694" transform="translate(-248.904 -175.141)"/>
      <path id="Trazado_2485" data-name="Trazado 2485" d="M392.831,215.118a1.694,1.694,0,1,0,1.694-1.694,1.694,1.694,0,0,0-1.694,1.694" transform="translate(-263.244 -143.02)"/>
      <path id="Trazado_2486" data-name="Trazado 2486" d="M392.831,239.085a1.694,1.694,0,1,0,1.694-1.694,1.694,1.694,0,0,0-1.694,1.694" transform="translate(-263.244 -159.081)"/>
      <path id="Trazado_2487" data-name="Trazado 2487" d="M414.229,239.085a1.694,1.694,0,1,0,1.694-1.694,1.694,1.694,0,0,0-1.694,1.694" transform="translate(-277.583 -159.081)"/>
      <path id="Trazado_2488" data-name="Trazado 2488" d="M392.831,263.051a1.694,1.694,0,1,0,1.694-1.694,1.694,1.694,0,0,0-1.694,1.694" transform="translate(-263.244 -175.141)"/>
      <path id="Trazado_2489" data-name="Trazado 2489" d="M371.432,287.017a1.694,1.694,0,1,0,1.694-1.694,1.694,1.694,0,0,0-1.694,1.694" transform="translate(-248.904 -191.201)"/>
      <path id="Trazado_2490" data-name="Trazado 2490" d="M349.606,191.58a1.694,1.694,0,1,0,1.694-1.694,1.694,1.694,0,0,0-1.694,1.694" transform="translate(-234.278 -127.246)"/>
      <path id="Trazado_2491" data-name="Trazado 2491" d="M350.034,168.042a1.694,1.694,0,1,0,1.694-1.694,1.694,1.694,0,0,0-1.694,1.694" transform="translate(-234.565 -111.473)"/>
      <path id="Trazado_2492" data-name="Trazado 2492" d="M349.178,215.118a1.694,1.694,0,1,0,1.694-1.694,1.694,1.694,0,0,0-1.694,1.694" transform="translate(-233.991 -143.02)"/>
      <path id="Trazado_2493" data-name="Trazado 2493" d="M349.178,239.085a1.694,1.694,0,1,0,1.694-1.694,1.694,1.694,0,0,0-1.694,1.694" transform="translate(-233.991 -159.081)"/>
      <path id="Trazado_2494" data-name="Trazado 2494" d="M349.178,263.051a1.694,1.694,0,1,0,1.694-1.694,1.694,1.694,0,0,0-1.694,1.694" transform="translate(-233.991 -175.141)"/>
      <path id="Trazado_2495" data-name="Trazado 2495" d="M349.178,287.017a1.694,1.694,0,1,0,1.694-1.694,1.694,1.694,0,0,0-1.694,1.694" transform="translate(-233.991 -191.201)"/>
      <path id="Trazado_2496" data-name="Trazado 2496" d="M349.178,310.983a1.694,1.694,0,1,0,1.694-1.694,1.694,1.694,0,0,0-1.694,1.694" transform="translate(-233.991 -207.261)"/>
      <path id="Trazado_2497" data-name="Trazado 2497" d="M529.732,606.06l33.6.048-1.407,5.769-34.464,3.477Z" transform="translate(-353.465 -406.133)" fill="#f7c257"/>
      <path id="Trazado_2498" data-name="Trazado 2498" d="M524.2,614.614l2.7-11.057,35.3.05-1.794,7.354Zm3.992-9.406-1.837,7.531,32.723-3.3,1.02-4.183Z" transform="translate(-351.276 -404.456)"/>
      <path id="Trazado_2499" data-name="Trazado 2499" d="M627.227,602.593h0a1.814,1.814,0,0,0-2.193,1.333l-1.329,5.448a1.814,1.814,0,0,0,3.526.86l1.329-5.448a1.814,1.814,0,0,0-1.333-2.193" transform="translate(-417.923 -403.775)" fill="#f7c257"/>
      <path id="Trazado_2500" data-name="Trazado 2500" d="M623.792,610.767a2.639,2.639,0,0,1-2.564-3.265l1.329-5.448a2.639,2.639,0,0,1,5.128,1.251l-1.329,5.448a2.645,2.645,0,0,1-2.564,2.014m1.327-9.078a.99.99,0,0,0-.959.755l-1.329,5.448a.99.99,0,0,0,.727,1.2.991.991,0,0,0,1.2-.727l1.329-5.448a.992.992,0,0,0-.964-1.224" transform="translate(-416.247 -402.099)"/>
      <path id="Trazado_2501" data-name="Trazado 2501" d="M286.587,564.45s7.493-8.479,2.757-24.692l-6.385-1.7L279,558.842Z" transform="translate(-186.964 -360.565)" fill="#f7c257"/>
      <path id="Trazado_2502" data-name="Trazado 2502" d="M284.862,563.481l-8.612-6.365,4.221-22.162L288.162,537l.131.446c4.808,16.461-2.612,25.109-2.931,25.469Zm-6.8-7.075,6.513,4.814c1.48-2.146,5.879-9.959,2.26-22.866L281.76,537Z" transform="translate(-185.121 -358.484)"/>
      <path id="Trazado_2503" data-name="Trazado 2503" d="M275.608,538.06l17.154,6.927,31.668-1.32s3.909-1.71,6.891-.085a3.461,3.461,0,0,1,1.693,2.241c.51,2.121,1.061,6.5-2.646,7.74-6.149,2.05-5.938-1.979-5.938-1.979L284.6,556.946,270,550.6Z" transform="translate(-180.933 -360.565)" fill="#fff"/>
      <path id="Trazado_2504" data-name="Trazado 2504" d="M282.266,555.636l-15.58-6.774,6.273-14.022L290.685,542l31.345-1.306c.8-.317,4.477-1.62,7.465.009a4.292,4.292,0,0,1,2.1,2.773c1.083,4.5-.079,7.679-3.187,8.715-2.6.865-4.538.827-5.772-.112a3.193,3.193,0,0,1-1.132-1.722Zm-13.394-7.622,13.63,5.926,40.583-5.462-.052.993a1.679,1.679,0,0,0,.615,1.3c.756.563,2.262.509,4.239-.15,3.006-1,2.609-4.669,2.1-6.765a2.64,2.64,0,0,0-1.286-1.709c-2.6-1.416-6.13.1-6.166.116l-.142.062-32,1.333-16.582-6.7Z" transform="translate(-178.712 -358.407)"/>
      <path id="Trazado_2505" data-name="Trazado 2505" d="M236,515.06l23.421,8.577s-1.319.66-3.53,4.065a11.722,11.722,0,0,0-1.748,6.491l-13.525-4.948Z" transform="translate(-158.148 -345.152)" fill="#fff"/>
      <path id="Trazado_2506" data-name="Trazado 2506" d="M252.387,532.643l-1.187-.433-13.9-5.086-5.268-16.179,26.809,9.817-1.709.855s-1.207.7-3.207,3.776a10.984,10.984,0,0,0-1.616,5.988Zm-13.768-6.792,12.061,4.412a12.346,12.346,0,0,1,1.86-5.768,20.665,20.665,0,0,1,2.594-3.334l-20.484-7.5Z" transform="translate(-155.489 -342.395)"/>
      <path id="Trazado_2507" data-name="Trazado 2507" d="M446.656,568.261l-7.052-1.72a4.946,4.946,0,0,1-3.633-5.978l2.659-10.9a4.946,4.946,0,0,1,5.978-3.633l7.052,1.72-.782,3.2-7.052-1.72a1.647,1.647,0,0,0-1.991,1.21l-2.659,10.9a1.647,1.647,0,0,0,1.21,1.991l7.053,1.72Z" transform="translate(-292.057 -365.81)" fill="#f7c257"/>
      <path id="Trazado_2508" data-name="Trazado 2508" d="M445.586,567.581l-7.854-1.916a5.77,5.77,0,0,1-4.239-6.974l2.659-10.9a5.771,5.771,0,0,1,6.975-4.239l7.853,1.916-1.173,4.807-7.853-1.916a.823.823,0,0,0-.995.6l-2.659,10.9a.807.807,0,0,0,.1.622.819.819,0,0,0,.508.372l7.854,1.916Zm-3.835-22.545a4.126,4.126,0,0,0-4,3.146l-2.659,10.9a4.121,4.121,0,0,0,3.027,4.981l6.251,1.525.391-1.6-6.251-1.525a2.472,2.472,0,0,1-1.816-2.988l2.659-10.9a2.473,2.473,0,0,1,2.988-1.816l6.251,1.525.391-1.6-6.251-1.525a4.156,4.156,0,0,0-.984-.119" transform="translate(-290.381 -364.134)"/>
      <path id="Trazado_2509" data-name="Trazado 2509" d="M501.829,538.98l-1.6-.391.488-2a9.979,9.979,0,1,0-19.389-4.73l-.489,2-1.6-.391.489-2a11.628,11.628,0,0,1,22.594,5.512Z" transform="translate(-321.145 -350.199)"/>
      <path id="Trazado_2510" data-name="Trazado 2510" d="M486.5,547.784l-23.381-5.7a2.317,2.317,0,0,0-2.8,1.7l-6.172,25.3a2.316,2.316,0,0,0,1.7,2.8l23.381,5.7a2.317,2.317,0,0,0,2.8-1.7l6.173-25.3a2.317,2.317,0,0,0-1.7-2.8" transform="translate(-304.292 -363.215)" fill="#f7c257"/>
      <path id="Trazado_2511" data-name="Trazado 2511" d="M478.106,576.8a3.139,3.139,0,0,1-.744-.09l-23.38-5.7a3.141,3.141,0,0,1-2.307-3.8l6.173-25.3a3.141,3.141,0,0,1,3.8-2.307l23.38,5.7a3.142,3.142,0,0,1,2.308,3.8l-6.173,25.3a3.147,3.147,0,0,1-3.052,2.4M460.9,541.162a1.494,1.494,0,0,0-1.447,1.139l-6.172,25.3a1.493,1.493,0,0,0,1.1,1.8l23.38,5.7a1.494,1.494,0,0,0,1.8-1.1l6.172-25.3a1.492,1.492,0,0,0-1.1-1.8l-23.38-5.7a1.493,1.493,0,0,0-.357-.043" transform="translate(-302.615 -361.538)"/>
      <path id="Trazado_2512" data-name="Trazado 2512" d="M158.46,658.766s1.979,3.959,22.432,1.979c0,0,14.515-2.309,22.1-10.226l-4.618-3.959-37.758,4.453Z" transform="translate(-106.187 -433.273)" fill="#f7c257"/>
      <path id="Trazado_2513" data-name="Trazado 2513" d="M168.854,660.379c-10.754,0-12.623-2.4-12.918-2.994l-.142-.284,2.391-8.591,38.667-4.561,5.554,4.761-.6.629c-7.691,8.025-21.964,10.374-22.568,10.47l-.05.007c-4.13.4-7.532.563-10.331.563m-11.262-3.588c.9.7,5.141,2.957,21.407,1.386.636-.107,13.685-2.371,21-9.362l-3.668-3.143-36.85,4.346Z" transform="translate(-104.401 -431.523)"/>
      <path id="Trazado_2514" data-name="Trazado 2514" d="M396.08,870.673s-4.467,4.124-12.384,3.464c0,0-5.938-.99-9.237-3.629l1.649-4.948,19.793,1.649Z" transform="translate(-250.933 -580.029)" fill="#f7c257"/>
      <path id="Trazado_2515" data-name="Trazado 2515" d="M383.457,873.256q-.864,0-1.787-.075l-.067-.009c-.251-.042-6.189-1.056-9.616-3.8l-.449-.359,2.036-6.109,21.156,1.763.235,4.57-.284.262a17.182,17.182,0,0,1-11.224,3.755m-1.614-1.716a16.684,16.684,0,0,0,11.434-3.018l-.12-2.329-18.429-1.536-1.257,3.769c3.034,2.131,7.931,3.036,8.371,3.113" transform="translate(-248.974 -578.251)"/>
      <path id="Trazado_2516" data-name="Trazado 2516" d="M124.716,853.56s-4.618,6.927-5.278,14.185c0,0-.33,9.9,2.639,9.9l5.485-2.4,1.113-19.37Z" transform="translate(-80.03 -571.988)" fill="#f7c257"/>
      <path id="Trazado_2517" data-name="Trazado 2517" d="M120.567,876.224h-.173a2.192,2.192,0,0,1-1.594-.712c-2.071-2.141-1.9-9.235-1.869-10.036l0-.047c.671-7.381,5.22-14.278,5.413-14.568l.431-.646,5.066,2.955-1.171,20.38Zm-1.988-10.67c-.089,2.763.214,7.578,1.408,8.811a.678.678,0,0,0,.279.19l4.82-2.111,1.055-18.36-2.83-1.651c-1.125,1.868-4.206,7.433-4.73,13.12" transform="translate(-78.348 -569.746)"/>
      <path id="Trazado_2518" data-name="Trazado 2518" d="M210.051,468.223l-1.638-15.073s12.234,2.4,5.025-19.55l-17.8,3.822,1.594,15.073-.328,15.728Z" transform="translate(-131.098 -290.564)" fill="#fff"/>
      <path id="Trazado_2519" data-name="Trazado 2519" d="M209.146,467.092H194.234l.344-16.518-1.667-15.758,19.255-4.133.232.7c3,9.122,3.085,15.365.267,18.554a6.672,6.672,0,0,1-5.148,2.156Zm-13.228-1.649h11.389l-1.66-15.273,1.1.216a5.3,5.3,0,0,0,4.693-1.549c1.606-1.831,2.816-6.133-.382-16.228l-16.351,3.51,1.522,14.387Z" transform="translate(-129.274 -288.609)"/>
      <path id="Trazado_2520" data-name="Trazado 2520" d="M73.5,879.861s-9.333-1.867-14.754-5.931a3.378,3.378,0,0,0-4.065.013L32.46,890.774H71.782Z" transform="translate(-21.752 -585.187)" fill="#fff"/>
      <path id="Trazado_2521" data-name="Trazado 2521" d="M67.5,889.933H25.017L49.2,871.62a4.22,4.22,0,0,1,5.057-.015c5.211,3.907,14.33,5.764,14.421,5.782l.777.155Zm-37.571-1.649H66.089l1.492-9.449c-2.386-.547-9.663-2.425-14.312-5.911a2.565,2.565,0,0,0-3.072.011Z" transform="translate(-16.764 -583.521)"/>
      <path id="Trazado_2522" data-name="Trazado 2522" d="M318.285,552.485l6.415-1.131a3.819,3.819,0,0,1,3.208.887,5.74,5.74,0,0,1,2.15,3.737c.1,1.976-.891,5.141-2.451,6.048-3.188,1.855-3.368-2.049-3.368-2.049l-6.672,1.188-31.511,6.3a8.4,8.4,0,0,1-5.191-.621l-14.985-6.969,8.6-14.106,14.3,7.575Z" transform="translate(-178.172 -365.728)" fill="#fff"/>
      <path id="Trazado_2523" data-name="Trazado 2523" d="M281.99,566.233a9.173,9.173,0,0,1-3.879-.863l-15.822-7.358,9.483-15.557,14.791,7.837,29.232-.847,6.356-1.121a4.614,4.614,0,0,1,3.9,1.084,6.4,6.4,0,0,1,2.425,4.312c.1,2.041-.859,5.638-2.86,6.8a3.015,3.015,0,0,1-3.041.338,3.218,3.218,0,0,1-1.428-2.141l-5.842,1.04-31.494,6.293a9.289,9.289,0,0,1-1.821.181m-17.332-8.938,14.148,6.58a7.531,7.531,0,0,0,4.682.56l31.511-6.3,7.614-1.355.043.938c.023.438.228,1.431.71,1.691.4.214,1.06-.107,1.421-.316,1.206-.7,2.131-3.5,2.042-5.294a5,5,0,0,0-1.875-3.163,3.013,3.013,0,0,0-2.516-.691l-6.534,1.144-29.727.862-13.8-7.313Z" transform="translate(-175.765 -363.51)"/>
      <path id="Trazado_2524" data-name="Trazado 2524" d="M394.719,867.56s3.111,10.834,10.268,12.331c8.863,1.854,11.608,6.346,11.831,7.462H381.552l2.456-19.4Z" transform="translate(-255.686 -581.37)" fill="#fff"/>
      <path id="Trazado_2525" data-name="Trazado 2525" d="M415.924,886.455H378.716l2.661-21.024,12.055-.441.179.62c.03.1,3.063,10.375,9.645,11.752,9.4,1.967,12.229,6.9,12.471,8.107Zm-35.337-1.649H413.6c-1.1-1.583-4.117-4.457-10.679-5.83-6.615-1.384-9.894-9.884-10.7-12.291l-9.384.343Z" transform="translate(-253.785 -579.647)"/>
      <path id="Trazado_2526" data-name="Trazado 2526" d="M129.86,718.221s4.2,16.547-2.223,25.437h64.016a13.45,13.45,0,0,0,10.1-4.451c3.636-4.118,5.75-11.69-2.624-25.061l-20.5-27.413h32.352l-2.965,41.907a56.575,56.575,0,0,1,12.362-2.309c6.818-.2,10.116,1.782,11.025,2.309l3.613-53.589a10.99,10.99,0,0,0-9.007-11.553l-54.893-9.937-26.075,1.315s-.494,38.773,27.66,64.7Z" transform="translate(-85.532 -437.964)"/>
      <path id="Trazado_2527" data-name="Trazado 2527" d="M165.728,522.092c.184-3.515.986-13.605,9.653-14.877a12.553,12.553,0,0,1,6.119.685l25.2,13.773a15.961,15.961,0,0,0-3.358,8.438c-.533,5.514,1.824,13.257,1.824,13.257l-2.639-.99,1.805,15.514a148.447,148.447,0,0,0-23.1-.834c-10.226.66-21.772,6.927-21.772,6.927s5.689-30.857,6.268-41.895" transform="translate(-106.857 -339.814)" fill="#fff"/>
      <path id="Trazado_2528" data-name="Trazado 2528" d="M156.053,563.861l.313-1.7c.057-.308,5.686-30.93,6.255-41.788.617-11.769,5.972-15.006,10.357-15.65a13.414,13.414,0,0,1,6.522.727l.112.051,26.1,14.27-.686.774a15.309,15.309,0,0,0-3.155,7.971c-.511,5.29,1.769,12.862,1.792,12.938l.487,1.6-2.94-1.1,1.77,15.211-1.039-.125a148.578,148.578,0,0,0-22.943-.83c-9.922.64-21.318,6.768-21.432,6.829Zm8.215-43.4c-.5,9.495-4.8,33.806-5.981,40.356,3.484-1.718,12.384-5.724,20.609-6.255a146.787,146.787,0,0,1,22.21.723l-1.842-15.827,2.389.9c-.668-2.591-1.82-7.847-1.419-12a17.243,17.243,0,0,1,2.941-8.1l-24.3-13.283a11.75,11.75,0,0,0-5.659-.623c-5.49.806-8.5,5.551-8.949,14.1" transform="translate(-104.574 -338.14)"/>
      <path id="Trazado_2529" data-name="Trazado 2529" d="M244.416,718.833c-9.821-.078-15.132-5.08-17.86-9.263a24.2,24.2,0,0,1-3.575-9.122l1.635-.217a22.962,22.962,0,0,0,3.355,8.49c3.647,5.558,9.184,8.406,16.457,8.463Z" transform="translate(-149.425 -469.238)" fill="#fff"/>
      <path id="Trazado_2530" data-name="Trazado 2530" d="M177.372,412.529s-1.346-3.375-3.582-1.459c-.95.814-.842,3.313,1.791,4.675a9.322,9.322,0,0,1-6.142,4.29s-6.44-7.839-3.216-15.721c0,0-10.01,1.517-10.748-7.524a7.367,7.367,0,0,1,7.882-7.524c2.924.046,8.093,1.982,7.523,8.957,0,0,13.247-5.732,17.546,7.524,0,0-4.964,7.14-11.055,6.781" transform="translate(-104.177 -260.855)"/>
      <rect id="Rectángulo_456" data-name="Rectángulo 456" width="1.649" height="14.819" transform="translate(83.881 199.727) rotate(-73.179)"/>
      <path id="Trazado_2531" data-name="Trazado 2531" d="M692.737,701.4s5.243,4.657,2.242,5.949-2.242-5.949-2.242-5.949" transform="translate(-464.16 -470.025)" fill="#fff"/>
      <path id="Trazado_2532" data-name="Trazado 2532" d="M692.62,706.658a1.865,1.865,0,0,1-1.12-.368c-1.742-1.281-1.368-5.762-1.275-6.647a.825.825,0,0,1,1.368-.531c.632.562,3.77,3.475,3.418,5.658a2.153,2.153,0,0,1-1.4,1.665,2.5,2.5,0,0,1-.993.223m-.841-5.017c.011,1.558.24,2.983.7,3.32.039.029.144.106.484-.041.381-.164.408-.332.421-.412.1-.651-.689-1.829-1.6-2.867" transform="translate(-462.468 -468.35)"/>
      <path id="Trazado_2533" data-name="Trazado 2533" d="M649.766,636.06s5.608,5.278,3.629,7.917-4.288-2.309-3.629-7.917" transform="translate(-435.345 -426.237)" fill="#fff"/>
      <path id="Trazado_2534" data-name="Trazado 2534" d="M650.573,643.855a1.858,1.858,0,0,1-.684-.131c-1.965-.785-3.141-5.018-2.621-9.434a.825.825,0,0,1,1.384-.5c.629.592,6.077,5.874,3.723,9.013a2.243,2.243,0,0,1-1.8,1.057m-1.779-7.529c-.01,3.253.993,5.581,1.707,5.866.178.072.424-.21.555-.384.9-1.2-.718-3.693-2.262-5.482" transform="translate(-433.665 -424.562)"/>
      <path id="Trazado_2535" data-name="Trazado 2535" d="M681.8,642.06s7.167,6.745,4.637,10.118-5.481-2.951-4.637-10.118" transform="translate(-456.789 -430.257)" fill="#fff"/>
      <path id="Trazado_2536" data-name="Trazado 2536" d="M683.3,652.256a2.128,2.128,0,0,1-.782-.15c-2.38-.951-3.849-6.363-3.207-11.817a.824.824,0,0,1,1.384-.5c.789.742,7.621,7.362,4.732,11.213a2.656,2.656,0,0,1-2.127,1.258m-2.485-9.978c-.139,4.441,1.183,7.844,2.315,8.3.1.042.425.17.977-.566,1.371-1.828-1.3-5.519-3.293-7.73" transform="translate(-455.117 -428.582)"/>
    </g>
  </g>
</svg>
